<svg width="36" height="36" viewBox="0 0 36 36" fill="none" xmlns="http://www.w3.org/2000/svg">
<path d="M5.46896 5.15361C11.0489 -0.320617 19.3079 -1.55058 26.2261 2.02585C27.7887 2.80714 29.2404 3.92622 30.5787 5.15361C34.3743 8.84091 36.1586 13.7582 35.9343 18.6754C35.4882 15.7694 34.0365 12.9769 31.806 10.7413C26.0018 4.93185 16.6288 4.93185 10.8246 10.7413C6.9181 14.6529 6.9181 21.1328 10.8246 25.1553C12.2763 26.607 14.0606 27.6126 15.9584 27.9478C12.1628 28.283 8.25893 27.0531 5.35551 24.1496C0.11078 19.0106 0.110778 10.517 5.24463 5.37794L5.35551 5.26706L5.46638 5.15619L5.46896 5.15361Z" fill="#181818"/>
<path d="M30.5787 30.7478C27.2318 34.0999 22.6549 36.0002 17.9671 36.0002C13.2794 36.0002 8.70508 34.0999 5.24469 30.7478C1.89777 27.3957 -3.05176e-05 22.8136 -3.05176e-05 18.0098V17.1151C0.446055 20.0211 1.89776 22.9245 4.12819 25.1601C6.91816 27.9526 10.6003 29.5178 14.6176 29.5178C18.078 29.5178 21.425 28.2879 23.9932 26.1657C24.3284 25.8305 24.7745 25.4953 25.1097 25.1601L25.2206 25.0492C29.127 21.0267 29.127 14.7686 25.2206 10.857C23.8823 9.51614 22.3197 8.62138 20.5328 8.17529H21.425C24.9962 8.17529 28.2323 9.627 30.687 12.1978C35.5965 17.2259 35.71 25.271 30.9114 30.4126C30.9114 30.4126 30.9114 30.5234 30.8005 30.5234L30.5762 30.7478H30.5787Z" fill="#181818"/>
</svg>
